<?xml version="1.0" encoding="us-ascii" standalone="no"?><svg xmlns="http://www.w3.org/2000/svg" xmlns:xlink="http://www.w3.org/1999/xlink" contentStyleType="text/css" height="579px" preserveAspectRatio="none" style="width:1004px;height:579px;background:#FFFFFF;" version="1.1" viewBox="0 0 1004 579" width="1004px" zoomAndPan="magnify"><defs/><g><text fill="#000000" font-family="Arial" font-size="26" font-weight="bold" lengthAdjust="spacing" textLength="308" x="347.25" y="39.3877">Mindful Mentor Dataflow</text><line style="stroke:#181818;stroke-width:0.5;stroke-dasharray:5.0,5.0;" x1="22" x2="22" y1="131.9961" y2="499.3809"/><line style="stroke:#181818;stroke-width:0.5;stroke-dasharray:5.0,5.0;" x1="224.5" x2="224.5" y1="131.9961" y2="499.3809"/><line style="stroke:#181818;stroke-width:0.5;stroke-dasharray:5.0,5.0;" x1="487.5" x2="487.5" y1="131.9961" y2="499.3809"/><line style="stroke:#181818;stroke-width:0.5;stroke-dasharray:5.0,5.0;" x1="635.5" x2="635.5" y1="131.9961" y2="499.3809"/><line style="stroke:#181818;stroke-width:0.5;stroke-dasharray:5.0,5.0;" x1="728.5" x2="728.5" y1="131.9961" y2="499.3809"/><line style="stroke:#181818;stroke-width:0.5;stroke-dasharray:5.0,5.0;" x1="845.5" x2="845.5" y1="131.9961" y2="499.3809"/><line style="stroke:#181818;stroke-width:0.5;stroke-dasharray:5.0,5.0;" x1="952.5" x2="952.5" y1="131.9961" y2="499.3809"/><text fill="#000000" font-family="Arial" font-size="14" lengthAdjust="spacing" textLength="29" x="5" y="129.0293">User</text><ellipse cx="22.5" cy="64.3975" fill="#E2E2F0" rx="8" ry="8" style="stroke:#181818;stroke-width:0.5;"/><path d="M22.5,72.3975 L22.5,99.3975 M9.5,80.3975 L35.5,80.3975 M22.5,99.3975 L9.5,114.3975 M22.5,99.3975 L35.5,114.3975 " fill="none" style="stroke:#181818;stroke-width:0.5;"/><text fill="#000000" font-family="Arial" font-size="14" lengthAdjust="spacing" textLength="29" x="5" y="511.5127">User</text><ellipse cx="22.5" cy="522.9795" fill="#E2E2F0" rx="8" ry="8" style="stroke:#181818;stroke-width:0.5;"/><path d="M22.5,530.9795 L22.5,557.9795 M9.5,538.9795 L35.5,538.9795 M22.5,557.9795 L9.5,572.9795 M22.5,557.9795 L35.5,572.9795 " fill="none" style="stroke:#181818;stroke-width:0.5;"/><rect fill="#E2E2F0" height="30.0986" rx="2.5" ry="2.5" style="stroke:#181818;stroke-width:0.5;" width="72" x="188.5" y="100.8975"/><text fill="#000000" font-family="Arial" font-size="14" lengthAdjust="spacing" textLength="58" x="195.5" y="121.0293">Frontend</text><rect fill="#E2E2F0" height="30.0986" rx="2.5" ry="2.5" style="stroke:#181818;stroke-width:0.5;" width="72" x="188.5" y="498.3809"/><text fill="#000000" font-family="Arial" font-size="14" lengthAdjust="spacing" textLength="58" x="195.5" y="518.5127">Frontend</text><rect fill="#E2E2F0" height="30.0986" rx="2.5" ry="2.5" style="stroke:#181818;stroke-width:0.5;" width="94" x="440.5" y="100.8975"/><text fill="#000000" font-family="Arial" font-size="14" lengthAdjust="spacing" textLength="80" x="447.5" y="121.0293">Orchestrator</text><rect fill="#E2E2F0" height="30.0986" rx="2.5" ry="2.5" style="stroke:#181818;stroke-width:0.5;" width="94" x="440.5" y="498.3809"/><text fill="#000000" font-family="Arial" font-size="14" lengthAdjust="spacing" textLength="80" x="447.5" y="518.5127">Orchestrator</text><rect fill="#E2E2F0" height="30.0986" rx="2.5" ry="2.5" style="stroke:#181818;stroke-width:0.5;" width="54" x="608.5" y="100.8975"/><text fill="#000000" font-family="Arial" font-size="14" lengthAdjust="spacing" textLength="40" x="615.5" y="121.0293">Safety</text><rect fill="#E2E2F0" height="30.0986" rx="2.5" ry="2.5" style="stroke:#181818;stroke-width:0.5;" width="54" x="608.5" y="498.3809"/><text fill="#000000" font-family="Arial" font-size="14" lengthAdjust="spacing" textLength="40" x="615.5" y="518.5127">Safety</text><rect fill="#E2E2F0" height="30.0986" rx="2.5" ry="2.5" style="stroke:#181818;stroke-width:0.5;" width="112" x="672.5" y="100.8975"/><text fill="#000000" font-family="Arial" font-size="14" lengthAdjust="spacing" textLength="98" x="679.5" y="121.0293">EmotionService</text><rect fill="#E2E2F0" height="30.0986" rx="2.5" ry="2.5" style="stroke:#181818;stroke-width:0.5;" width="112" x="672.5" y="498.3809"/><text fill="#000000" font-family="Arial" font-size="14" lengthAdjust="spacing" textLength="98" x="679.5" y="518.5127">EmotionService</text><rect fill="#E2E2F0" height="30.0986" rx="2.5" ry="2.5" style="stroke:#181818;stroke-width:0.5;" width="103" x="794.5" y="100.8975"/><text fill="#000000" font-family="Arial" font-size="14" lengthAdjust="spacing" textLength="89" x="801.5" y="121.0293">PromptEngine</text><rect fill="#E2E2F0" height="30.0986" rx="2.5" ry="2.5" style="stroke:#181818;stroke-width:0.5;" width="103" x="794.5" y="498.3809"/><text fill="#000000" font-family="Arial" font-size="14" lengthAdjust="spacing" textLength="89" x="801.5" y="518.5127">PromptEngine</text><rect fill="#E2E2F0" height="30.0986" rx="2.5" ry="2.5" style="stroke:#181818;stroke-width:0.5;" width="91" x="907.5" y="100.8975"/><text fill="#000000" font-family="Arial" font-size="14" lengthAdjust="spacing" textLength="77" x="914.5" y="121.0293">LlmGateway</text><rect fill="#E2E2F0" height="30.0986" rx="2.5" ry="2.5" style="stroke:#181818;stroke-width:0.5;" width="91" x="907.5" y="498.3809"/><text fill="#000000" font-family="Arial" font-size="14" lengthAdjust="spacing" textLength="77" x="914.5" y="518.5127">LlmGateway</text><polygon fill="#181818" points="212.5,158.9448,222.5,162.9448,212.5,166.9448,216.5,162.9448" style="stroke:#181818;stroke-width:1.0;"/><line style="stroke:#181818;stroke-width:1.0;" x1="22.5" x2="218.5" y1="162.9448" y2="162.9448"/><text fill="#000000" font-family="Arial" font-size="13" lengthAdjust="spacing" textLength="136" x="29.5" y="158.1899">submit {text, sessionId}</text><polygon fill="#181818" points="475.5,187.8936,485.5,191.8936,475.5,195.8936,479.5,191.8936" style="stroke:#181818;stroke-width:1.0;"/><line style="stroke:#181818;stroke-width:1.0;" x1="224.5" x2="481.5" y1="191.8936" y2="191.8936"/><text fill="#000000" font-family="Arial" font-size="13" lengthAdjust="spacing" textLength="239" x="231.5" y="187.1387">POST /chat with {text, sessionId, traceId}</text><polygon fill="#181818" points="623.5,216.8423,633.5,220.8423,623.5,224.8423,627.5,220.8423" style="stroke:#181818;stroke-width:1.0;"/><line style="stroke:#181818;stroke-width:1.0;" x1="487.5" x2="629.5" y1="220.8423" y2="220.8423"/><text fill="#000000" font-family="Arial" font-size="13" lengthAdjust="spacing" textLength="124" x="494.5" y="216.0874">validate {text, traceId}</text><polygon fill="#181818" points="498.5,245.791,488.5,249.791,498.5,253.791,494.5,249.791" style="stroke:#181818;stroke-width:1.0;"/><line style="stroke:#181818;stroke-width:1.0;stroke-dasharray:2.0,2.0;" x1="492.5" x2="634.5" y1="249.791" y2="249.791"/><text fill="#000000" font-family="Arial" font-size="13" lengthAdjust="spacing" textLength="29" x="504.5" y="245.0361">allow</text><polygon fill="#181818" points="716.5,274.7397,726.5,278.7397,716.5,282.7397,720.5,278.7397" style="stroke:#181818;stroke-width:1.0;"/><line style="stroke:#181818;stroke-width:1.0;" x1="487.5" x2="722.5" y1="278.7397" y2="278.7397"/><text fill="#000000" font-family="Arial" font-size="13" lengthAdjust="spacing" textLength="126" x="494.5" y="273.9849">analyze {text, traceId}</text><polygon fill="#181818" points="498.5,303.6885,488.5,307.6885,498.5,311.6885,494.5,307.6885" style="stroke:#181818;stroke-width:1.0;"/><line style="stroke:#181818;stroke-width:1.0;stroke-dasharray:2.0,2.0;" x1="492.5" x2="727.5" y1="307.6885" y2="307.6885"/><text fill="#000000" font-family="Arial" font-size="13" lengthAdjust="spacing" textLength="158" x="504.5" y="302.9336">{emotion, intensity, scores}</text><polygon fill="#181818" points="834,332.6372,844,336.6372,834,340.6372,838,336.6372" style="stroke:#181818;stroke-width:1.0;"/><line style="stroke:#181818;stroke-width:1.0;" x1="487.5" x2="840" y1="336.6372" y2="336.6372"/><text fill="#000000" font-family="Arial" font-size="13" lengthAdjust="spacing" textLength="263" x="494.5" y="331.8823">build prompt {text, emotion, intensity, traceId}</text><polygon fill="#181818" points="498.5,361.5859,488.5,365.5859,498.5,369.5859,494.5,365.5859" style="stroke:#181818;stroke-width:1.0;"/><line style="stroke:#181818;stroke-width:1.0;stroke-dasharray:2.0,2.0;" x1="492.5" x2="845" y1="365.5859" y2="365.5859"/><text fill="#000000" font-family="Arial" font-size="13" lengthAdjust="spacing" textLength="195" x="504.5" y="360.8311">{prompt, mode, llmParams, meta}</text><polygon fill="#181818" points="941,390.5347,951,394.5347,941,398.5347,945,394.5347" style="stroke:#181818;stroke-width:1.0;"/><line style="stroke:#181818;stroke-width:1.0;" x1="487.5" x2="947" y1="394.5347" y2="394.5347"/><text fill="#000000" font-family="Arial" font-size="13" lengthAdjust="spacing" textLength="205" x="494.5" y="389.7798">generate {prompt, params, provider}</text><polygon fill="#181818" points="498.5,419.4834,488.5,423.4834,498.5,427.4834,494.5,423.4834" style="stroke:#181818;stroke-width:1.0;"/><line style="stroke:#181818;stroke-width:1.0;stroke-dasharray:2.0,2.0;" x1="492.5" x2="952" y1="423.4834" y2="423.4834"/><text fill="#000000" font-family="Arial" font-size="13" lengthAdjust="spacing" textLength="125" x="504.5" y="418.7285">{text, provider, usage}</text><polygon fill="#181818" points="235.5,448.4321,225.5,452.4321,235.5,456.4321,231.5,452.4321" style="stroke:#181818;stroke-width:1.0;"/><line style="stroke:#181818;stroke-width:1.0;stroke-dasharray:2.0,2.0;" x1="229.5" x2="486.5" y1="452.4321" y2="452.4321"/><text fill="#000000" font-family="Arial" font-size="13" lengthAdjust="spacing" textLength="214" x="241.5" y="447.6772">{reply, emotion, mode, meta, traceId}</text><polygon fill="#181818" points="33.5,477.3809,23.5,481.3809,33.5,485.3809,29.5,481.3809" style="stroke:#181818;stroke-width:1.0;"/><line style="stroke:#181818;stroke-width:1.0;stroke-dasharray:2.0,2.0;" x1="27.5" x2="223.5" y1="481.3809" y2="481.3809"/><text fill="#000000" font-family="Arial" font-size="13" lengthAdjust="spacing" textLength="178" x="39.5" y="476.626">render response and exercises</text><!--SRC=[XLBBJiD03BpdA_m1GKWSEFI0XCH3I3mg5Jx0pRgjnMOtsdLQGiM_usreoP98t19xPZpZjR1OWYTsPjLQU28dFi0D2gwitnNndLs30MkueHMsLkwyasUi2Qu3entqNvFE_zq5Vn9SN4wsf5CdIszDKM2LRBn52eMYX2jkq0dS1SMHCrdn9LGRYX9GALbZWIkIBYlTrbxOkmM5BLUKjUR1rutSkZMxlF5ewtiKsc5N5CaHd5sTZC0COhkiMM0lz24bH8fH1poOh-A4KVpGetBcBujNEAysAB1ZsOp89IYqegIICLMf3wKQMxHirDUHV6By8Cx6Oz6cDnr9vaj9E8Us-nmh_m5EJDXJ3oc1K_R8qccioWUAuoZ3ZIjtsR8rq1oAnz5JSYSx6N_AJAzLGkqDbM1jFKyN5xL0WcC_lm-jv3Kv2eVr7bMQ7xB-RzbG-2e6XAdnVOGZl8Gsufh-ZisFQH-eiTqWTsyz-Hq47voMqWytEOEW__gXcswyYwIFQ80-A5IiP_KD]--></g></svg>